G04 ================== begin FILE IDENTIFICATION RECORD ==================*
G04 Layout Name:  C:/Users/dorin/Desktop/An III/Proiect 1/allegro/P1-AMPLIFICATOR.brd*
G04 Film Name:    BOTTOM*
G04 File Format:  Gerber RS274X*
G04 File Origin:  Cadence Allegro 16.6-2015-S059*
G04 Origin Date:  Tue Dec 14 21:26:38 2021*
G04 *
G04 Layer:  ETCH/BOTTOM*
G04 Layer:  PIN/BOTTOM*
G04 Layer:  VIA CLASS/BOTTOM*
G04 *
G04 Offset:    (0.0000 0.0000)*
G04 Mirror:    No*
G04 Mode:      Positive*
G04 Rotation:  0*
G04 FullContactRelief:  No*
G04 UndefLineWidth:     0.1000*
G04 ================== end FILE IDENTIFICATION RECORD ====================*
%FSLAX25Y25*MOMM*%
%IR0*IPPOS*OFA0.00000B0.00000*MIA0B0*SFA1.00000B1.00000*%
%ADD10C,.7*%
%ADD11C,.4*%
%ADD12C,.5*%
%ADD13C,.75*%
G75*
%LPD*%
G75*
G54D10*
X366360Y1743360D03*
X979000Y2362000D03*
X1720000Y918000D03*
X1356360Y1743360D03*
X1651000Y2362000D03*
X1701000Y2084000D03*
X1333000Y1932000D03*
X1733860Y2615860D03*
X2265000Y1700000D03*
X2288000Y1956260D03*
X1893260D03*
X2170000Y2845000D03*
X2838360Y740000D03*
X2625000Y1316000D03*
X3157000Y2942000D03*
X3444000Y1396000D03*
Y2668000D03*
G54D11*
G01X979000Y2362000D02*
X1651000D01*
G01X1701000Y2084000D02*
Y1972000D01*
X1661000Y1932000D01*
X1333000D01*
G01X3157000Y2942000D02*
X1864000D01*
X1733860Y2811860D01*
Y2615860D01*
G01X1893260Y1956260D02*
X2288000D01*
G01X2625000Y1316000D02*
Y2768000D01*
X2548000Y2845000D01*
X2170000D01*
G54D12*
G01X1720000Y918000D02*
Y1509000D01*
X1911000Y1700000D01*
X2265000D01*
G54D13*
G01X2838360Y740000D02*
X708000D01*
X637000Y811000D01*
Y1621360D01*
X759000Y1743360D01*
G01D02*
X366360D01*
G01X1356360D02*
X759000D01*
G01X3444000Y1396000D02*
Y2668000D01*
M02*
