G04 ================== begin FILE IDENTIFICATION RECORD ==================*
G04 Layout Name:  C:/Users/dorin/Desktop/An III/Proiect 1/allegro/P1-AMPLIFICATOR.brd*
G04 Film Name:    FAB*
G04 File Format:  Gerber RS274X*
G04 File Origin:  Cadence Allegro 16.6-2015-S059*
G04 Origin Date:  Tue Dec 14 21:26:38 2021*
G04 *
G04 Layer:  MANUFACTURING/NCDRILL_LEGEND*
G04 Layer:  MANUFACTURING/NCDRILL_FIGURE*
G04 Layer:  MANUFACTURING/XSECTION_CHART*
G04 Layer:  MANUFACTURING/NCLEGEND-1-2*
G04 Layer:  DRAWING FORMAT/OUTLINE*
G04 *
G04 Offset:    (0.0000 0.0000)*
G04 Mirror:    No*
G04 Mode:      Positive*
G04 Rotation:  0*
G04 FullContactRelief:  No*
G04 UndefLineWidth:     0.1000*
G04 ================== end FILE IDENTIFICATION RECORD ====================*
%FSLAX25Y25*MOMM*%
%IR0*IPPOS*OFA0.00000B0.00000*MIA0B0*SFA1.00000B1.00000*%
%AMMACRO10*
1,1,.1,0.0,.5*
20,1,.1,0.0,.5,.5,-.5,0.0*
1,1,.1,.5,-.5*
20,1,.1,.5,-.5,-.5,-.5,0.0*
1,1,.1,-.5,-.5*
20,1,.1,-.5,-.5,0.0,.5,0.0*
1,1,.1,0.0,.5*
1,1,.1,.25,0.0*
20,1,.1,.25,0.0,-.25,0.0,0.0*
1,1,.1,-.25,0.0*
1,1,.1,0.0,.25*
20,1,.1,0.0,.25,0.0,-.25,0.0*
1,1,.1,0.0,-.25*
%
%ADD10MACRO10*%
%ADD11C,.1*%
G75*
%LPD*%
G75*
G36*
G01X6326120Y5697800D02*
Y5636600D01*
X6389620D01*
Y659000D01*
X6326120D01*
Y597800D01*
X6707120D01*
Y659000D01*
X6643620D01*
Y5636600D01*
X6707120D01*
Y5697800D01*
X6326120D01*
G37*
G36*
G01X5818120Y597800D02*
Y659000D01*
X7342120D01*
Y597800D01*
X5818120D01*
G37*
G36*
G01Y5636600D02*
Y5697800D01*
X7342120D01*
Y5636600D01*
X5818120D01*
G37*
G54D10*
X241730Y-2702500D03*
X366360Y1743360D03*
X979000Y2362000D03*
X1720000Y918000D03*
X1356360Y1743360D03*
X1651000Y2362000D03*
X1701000Y2084000D03*
X1333000Y1932000D03*
X1733860Y2615860D03*
X2265000Y1700000D03*
X2288000Y1956260D03*
X1893260D03*
X2170000Y2845000D03*
X2838360Y740000D03*
X2625000Y1316000D03*
X3157000Y2942000D03*
X3444000Y1396000D03*
Y2668000D03*
G54D11*
G01X-620480Y-2226250D02*
Y-1908750D01*
X-470860D01*
G01X-525990Y-2062200D02*
X-620480D01*
G01X-277950Y-1908750D02*
X-183470D01*
G01X-230710D02*
Y-2226250D01*
G01X-277950D02*
X-183470D01*
G01X107870Y-2067500D02*
X186620D01*
Y-2162750D01*
X162990Y-2194510D01*
X135430Y-2215670D01*
X96060Y-2226250D01*
X56690Y-2215670D01*
X29130Y-2194510D01*
X5510Y-2162750D01*
X-10240Y-2125710D01*
X-18120Y-2083380D01*
Y-2046330D01*
X-10240Y-2014590D01*
X5510Y-1977540D01*
X29130Y-1945790D01*
X52750Y-1924630D01*
X84250Y-1908750D01*
X111810D01*
X143300Y-1919330D01*
X166930Y-1940500D01*
G01X312600Y-1908750D02*
Y-2136290D01*
X328340Y-2183930D01*
X359840Y-2215670D01*
X399210Y-2226250D01*
X438580Y-2215670D01*
X470080Y-2183930D01*
X485820Y-2136290D01*
Y-1908750D01*
G01X635430Y-2226250D02*
Y-1908750D01*
X733850D01*
X765350Y-1924630D01*
X785040Y-1945790D01*
X792910Y-1988130D01*
X785040Y-2030460D01*
X761410Y-2056910D01*
X733850Y-2072800D01*
X635430D01*
G01X733850D02*
X792910Y-2226250D01*
G01X1107870D02*
X950390D01*
Y-1908750D01*
X1107870D01*
G01X1044880Y-2062200D02*
X950390D01*
G01X-900000Y-2385000D02*
X11383440D01*
G01X-900000Y-1750000D02*
X11383440D01*
G01X-900000Y-1115000D02*
X11383440D01*
G01X891330Y-1591250D02*
X989760Y-1273750D01*
X1088190Y-1591250D01*
G01X1052750Y-1480130D02*
X926760D01*
G01X1225980Y-1273750D02*
Y-1591250D01*
X1383460D01*
G01X1540940Y-1273750D02*
Y-1591250D01*
X1698420D01*
G01X2162990Y-1273750D02*
Y-1501290D01*
X2178730Y-1548930D01*
X2210230Y-1580670D01*
X2249600Y-1591250D01*
X2288970Y-1580670D01*
X2320470Y-1548930D01*
X2336210Y-1501290D01*
Y-1273750D01*
G01X2474010Y-1591250D02*
Y-1273750D01*
X2655110Y-1591250D01*
Y-1273750D01*
G01X2832280D02*
X2926760D01*
G01X2879520D02*
Y-1591250D01*
G01X2832280D02*
X2926760D01*
G01X3194480Y-1273750D02*
Y-1591250D01*
G01X3103930Y-1273750D02*
X3285030D01*
G01X3426760Y-1548930D02*
X3458260Y-1575380D01*
X3493690Y-1591250D01*
X3525190D01*
X3556680Y-1575380D01*
X3580310Y-1548930D01*
X3592120Y-1511870D01*
X3584250Y-1474840D01*
X3564560Y-1443090D01*
X3529120Y-1421910D01*
X3481880Y-1411330D01*
X3454320Y-1390170D01*
X3442510Y-1353130D01*
X3450390Y-1316080D01*
X3470070Y-1289630D01*
X3497630Y-1273750D01*
X3525190D01*
X3552750Y-1284330D01*
X3576370Y-1310790D01*
G01X4040930Y-1591250D02*
X4139360Y-1273750D01*
X4237790Y-1591250D01*
G01X4202350Y-1480130D02*
X4076360D01*
G01X4375580Y-1591250D02*
Y-1273750D01*
X4474000D01*
X4505500Y-1289630D01*
X4525190Y-1310790D01*
X4533060Y-1353130D01*
X4525190Y-1395460D01*
X4501560Y-1421910D01*
X4474000Y-1437800D01*
X4375580D01*
G01X4474000D02*
X4533060Y-1591250D01*
G01X4848020D02*
X4690540D01*
Y-1273750D01*
X4848020D01*
G01X4785030Y-1427200D02*
X4690540D01*
G01X5351960Y-1273750D02*
X5446440D01*
G01X5399200D02*
Y-1591250D01*
G01X5351960D02*
X5446440D01*
G01X5623610D02*
Y-1273750D01*
X5804710Y-1591250D01*
Y-1273750D01*
G01X6241710Y-1591250D02*
Y-1273750D01*
X6344080Y-1538330D01*
X6446450Y-1273750D01*
Y-1591250D01*
G01X6611800Y-1273750D02*
X6706280D01*
G01X6659040D02*
Y-1591250D01*
G01X6611800D02*
X6706280D01*
G01X6895260Y-1273750D02*
Y-1591250D01*
X7052740D01*
G01X7210220Y-1273750D02*
Y-1591250D01*
X7367700D01*
G01X7556680Y-1273750D02*
X7651160D01*
G01X7603920D02*
Y-1591250D01*
G01X7556680D02*
X7651160D01*
G01X7816510D02*
Y-1273750D01*
X7918880Y-1538330D01*
X8021250Y-1273750D01*
Y-1591250D01*
G01X8312580D02*
X8155100D01*
Y-1273750D01*
X8312580D01*
G01X8249590Y-1427200D02*
X8155100D01*
G01X8548800Y-1273750D02*
Y-1591250D01*
G01X8458250Y-1273750D02*
X8639350D01*
G01X8942500Y-1591250D02*
X8785020D01*
Y-1273750D01*
X8942500D01*
G01X8879510Y-1427200D02*
X8785020D01*
G01X9099980Y-1591250D02*
Y-1273750D01*
X9198400D01*
X9229900Y-1289630D01*
X9249590Y-1310790D01*
X9257460Y-1353130D01*
X9249590Y-1395460D01*
X9225960Y-1421910D01*
X9198400Y-1437800D01*
X9099980D01*
G01X9198400D02*
X9257460Y-1591250D01*
G01X9411000Y-1548930D02*
X9442500Y-1575380D01*
X9477930Y-1591250D01*
X9509430D01*
X9540920Y-1575380D01*
X9564550Y-1548930D01*
X9576360Y-1511870D01*
X9568490Y-1474840D01*
X9548800Y-1443090D01*
X9513360Y-1421910D01*
X9466120Y-1411330D01*
X9438560Y-1390170D01*
X9426750Y-1353130D01*
X9434630Y-1316080D01*
X9454310Y-1289630D01*
X9481870Y-1273750D01*
X9509430D01*
X9536990Y-1284330D01*
X9560610Y-1310790D01*
G01X1383460Y-1750000D02*
Y-3020000D01*
G01X1218110Y-941250D02*
Y-623750D01*
X1296840D01*
X1328340Y-639630D01*
X1351960Y-660790D01*
X1371650Y-692540D01*
X1387400Y-729590D01*
X1391330Y-782500D01*
X1387400Y-835420D01*
X1371650Y-872460D01*
X1351960Y-904220D01*
X1328340Y-925380D01*
X1296840Y-941250D01*
X1218110D01*
G01X1540940D02*
Y-623750D01*
X1639360D01*
X1670860Y-639630D01*
X1690550Y-660790D01*
X1698420Y-703130D01*
X1690550Y-745460D01*
X1666920Y-771910D01*
X1639360Y-787800D01*
X1540940D01*
G01X1639360D02*
X1698420Y-941250D01*
G01X1887400Y-623750D02*
X1981880D01*
G01X1934640D02*
Y-941250D01*
G01X1887400D02*
X1981880D01*
G01X2170860Y-623750D02*
Y-941250D01*
X2328340D01*
G01X2485820Y-623750D02*
Y-941250D01*
X2643300D01*
G01X3281090Y-650210D02*
X3257470Y-634330D01*
X3229920Y-623750D01*
X3198420D01*
X3162980Y-639630D01*
X3135430Y-666080D01*
X3115740Y-697840D01*
X3099990Y-750750D01*
X3096050Y-798380D01*
X3103930Y-846000D01*
X3115740Y-877750D01*
X3139360Y-909510D01*
X3166920Y-930670D01*
X3194480Y-941250D01*
X3222040D01*
X3249600Y-930670D01*
X3273220Y-914800D01*
X3292910Y-893640D01*
G01X3426760Y-941250D02*
Y-623750D01*
G01X3592120D02*
Y-941250D01*
G01Y-782500D02*
X3426760D01*
G01X3725970Y-941250D02*
X3824400Y-623750D01*
X3922830Y-941250D01*
G01X3887390Y-830130D02*
X3761400D01*
G01X4060620Y-941250D02*
Y-623750D01*
X4159040D01*
X4190540Y-639630D01*
X4210230Y-660790D01*
X4218100Y-703130D01*
X4210230Y-745460D01*
X4186600Y-771910D01*
X4159040Y-787800D01*
X4060620D01*
G01X4159040D02*
X4218100Y-941250D01*
G01X4454320Y-623750D02*
Y-941250D01*
G01X4363770Y-623750D02*
X4544870D01*
G01X4769280Y-951830D02*
X4761400Y-946540D01*
Y-935960D01*
X4769280Y-930670D01*
X4777160Y-935960D01*
Y-946540D01*
X4769280Y-951830D01*
G01Y-808970D02*
X4761400Y-803670D01*
Y-793090D01*
X4769280Y-787800D01*
X4777160Y-793090D01*
Y-803670D01*
X4769280Y-808970D01*
G01X5399200Y-623750D02*
Y-941250D01*
G01X5308650Y-623750D02*
X5489750D01*
G01X5714160Y-941250D02*
X5682660Y-935960D01*
X5655110Y-914800D01*
X5631480Y-883040D01*
X5615730Y-846000D01*
X5607860Y-803670D01*
Y-761330D01*
X5615730Y-719000D01*
X5631480Y-681960D01*
X5655110Y-650210D01*
X5682660Y-629040D01*
X5714160Y-623750D01*
X5745650Y-629040D01*
X5773210Y-650210D01*
X5796840Y-681960D01*
X5812590Y-719000D01*
X5820460Y-761330D01*
Y-803670D01*
X5812590Y-846000D01*
X5796840Y-883040D01*
X5773210Y-914800D01*
X5745650Y-935960D01*
X5714160Y-941250D01*
G01X5950380D02*
Y-623750D01*
X6044870D01*
X6076360Y-639630D01*
X6099990Y-676670D01*
X6107860Y-719000D01*
X6099990Y-761330D01*
X6080300Y-793090D01*
X6044870Y-808970D01*
X5950380D01*
G01X6659040Y-623750D02*
Y-941250D01*
G01X6603920Y-729590D02*
X6714160D01*
G01X6974000Y-941250D02*
X6950380Y-935960D01*
X6926760Y-914800D01*
X6911000Y-877750D01*
X6903130Y-835420D01*
X6911000Y-793090D01*
X6926760Y-756040D01*
X6950380Y-734880D01*
X6974000Y-729590D01*
X6997620Y-734880D01*
X7021240Y-756040D01*
X7036990Y-793090D01*
X7040930Y-835420D01*
X7036990Y-877750D01*
X7021240Y-914800D01*
X6997620Y-935960D01*
X6974000Y-941250D01*
G01X7635410Y-771910D02*
X7651160Y-756040D01*
X7662970Y-729590D01*
X7670850Y-692540D01*
X7662970Y-660790D01*
X7647230Y-639630D01*
X7619670Y-623750D01*
X7513370D01*
Y-941250D01*
X7643290D01*
X7670850Y-920090D01*
X7686600Y-888330D01*
X7694470Y-851290D01*
X7686600Y-814260D01*
X7662970Y-782500D01*
X7635410Y-771910D01*
X7513370D01*
G01X7918880Y-941250D02*
X7887380Y-935960D01*
X7859830Y-914800D01*
X7836200Y-883040D01*
X7820450Y-846000D01*
X7812580Y-803670D01*
Y-761330D01*
X7820450Y-719000D01*
X7836200Y-681960D01*
X7859830Y-650210D01*
X7887380Y-629040D01*
X7918880Y-623750D01*
X7950370Y-629040D01*
X7977930Y-650210D01*
X8001560Y-681960D01*
X8017310Y-719000D01*
X8025180Y-761330D01*
Y-803670D01*
X8017310Y-846000D01*
X8001560Y-883040D01*
X7977930Y-914800D01*
X7950370Y-935960D01*
X7918880Y-941250D01*
G01X8233840Y-623750D02*
Y-941250D01*
G01X8143290Y-623750D02*
X8324390D01*
G01X8548800D02*
Y-941250D01*
G01X8458250Y-623750D02*
X8639350D01*
G01X8863760Y-941250D02*
X8832260Y-935960D01*
X8804710Y-914800D01*
X8781080Y-883040D01*
X8765330Y-846000D01*
X8757460Y-803670D01*
Y-761330D01*
X8765330Y-719000D01*
X8781080Y-681960D01*
X8804710Y-650210D01*
X8832260Y-629040D01*
X8863760Y-623750D01*
X8895250Y-629040D01*
X8922810Y-650210D01*
X8946440Y-681960D01*
X8962190Y-719000D01*
X8970060Y-761330D01*
Y-803670D01*
X8962190Y-846000D01*
X8946440Y-883040D01*
X8922810Y-914800D01*
X8895250Y-935960D01*
X8863760Y-941250D01*
G01X9076350D02*
Y-623750D01*
X9178720Y-888330D01*
X9281090Y-623750D01*
Y-941250D01*
G01X3229910Y-2183930D02*
X3261410Y-2210380D01*
X3296840Y-2226250D01*
X3328340D01*
X3359830Y-2210380D01*
X3383460Y-2183930D01*
X3395270Y-2146870D01*
X3387400Y-2109840D01*
X3367710Y-2078090D01*
X3332270Y-2056910D01*
X3285030Y-2046330D01*
X3257470Y-2025170D01*
X3245660Y-1988130D01*
X3253540Y-1951080D01*
X3273220Y-1924630D01*
X3300780Y-1908750D01*
X3328340D01*
X3355900Y-1919330D01*
X3379520Y-1945790D01*
G01X3580310Y-1908750D02*
X3674790D01*
G01X3627550D02*
Y-2226250D01*
G01X3580310D02*
X3674790D01*
G01X3867700Y-1908750D02*
X4017320D01*
X3867700Y-2226250D01*
X4017320D01*
G01X4336210D02*
X4178730D01*
Y-1908750D01*
X4336210D01*
G01X4273220Y-2062200D02*
X4178730D01*
G01X3470070Y-2543750D02*
X3438570Y-2554330D01*
X3414950Y-2580790D01*
X3399200Y-2612540D01*
X3387390Y-2654880D01*
X3383460Y-2702500D01*
X3387390Y-2750130D01*
X3399200Y-2792460D01*
X3414950Y-2824220D01*
X3438570Y-2850670D01*
X3470070Y-2861250D01*
X3501560Y-2850670D01*
X3525190Y-2824220D01*
X3540940Y-2792460D01*
X3552750Y-2750130D01*
X3556680Y-2702500D01*
X3552750Y-2654880D01*
X3540940Y-2612540D01*
X3525190Y-2580790D01*
X3501560Y-2554330D01*
X3470070Y-2543750D01*
G01X3785030Y-2871830D02*
X3777150Y-2866540D01*
Y-2855960D01*
X3785030Y-2850670D01*
X3792910Y-2855960D01*
Y-2866540D01*
X3785030Y-2871830D01*
G01X4147230Y-2861250D02*
Y-2543750D01*
X4001560Y-2771290D01*
X4198420D01*
G01X5360290Y204000D02*
Y294000D01*
X5386950D01*
X5397620Y289500D01*
X5405620Y283500D01*
X5412290Y274500D01*
X5417620Y264000D01*
X5418950Y249000D01*
X5417620Y234000D01*
X5412290Y223500D01*
X5405620Y214500D01*
X5397620Y208500D01*
X5386950Y204000D01*
X5360290D01*
G01X5511530D02*
X5458190D01*
Y294000D01*
X5511530D01*
G01X5490190Y250500D02*
X5458190D01*
G01X5552100Y216000D02*
X5562770Y208500D01*
X5574770Y204000D01*
X5585430D01*
X5596100Y208500D01*
X5604100Y216000D01*
X5608100Y226500D01*
X5605430Y237000D01*
X5598770Y246000D01*
X5586770Y252000D01*
X5570770Y255000D01*
X5561430Y261000D01*
X5557430Y271500D01*
X5560100Y282000D01*
X5566770Y289500D01*
X5576100Y294000D01*
X5585430D01*
X5594770Y291000D01*
X5602770Y283500D01*
G01X5659340Y294000D02*
X5691340D01*
G01X5675340D02*
Y204000D01*
G01X5659340D02*
X5691340D01*
G01X5778580Y249000D02*
X5805250D01*
Y222000D01*
X5797250Y213000D01*
X5787910Y207000D01*
X5774580Y204000D01*
X5761250Y207000D01*
X5751910Y213000D01*
X5743910Y222000D01*
X5738580Y232500D01*
X5735910Y244500D01*
Y255000D01*
X5738580Y264000D01*
X5743910Y274500D01*
X5751910Y283500D01*
X5759910Y289500D01*
X5770580Y294000D01*
X5779910D01*
X5790580Y291000D01*
X5798580Y285000D01*
G01X5835150Y204000D02*
Y294000D01*
X5896490Y204000D01*
Y294000D01*
G01X6085630Y286500D02*
X6077630Y291000D01*
X6068300Y294000D01*
X6057630D01*
X6045630Y289500D01*
X6036300Y282000D01*
X6029630Y273000D01*
X6024300Y258000D01*
X6022970Y244500D01*
X6025630Y231000D01*
X6029630Y222000D01*
X6037630Y213000D01*
X6046970Y207000D01*
X6056300Y204000D01*
X6065630D01*
X6074970Y207000D01*
X6082970Y211500D01*
X6089630Y217500D01*
G01X6124870Y204000D02*
Y294000D01*
X6158210D01*
X6168870Y289500D01*
X6175540Y283500D01*
X6178210Y271500D01*
X6175540Y259500D01*
X6167540Y252000D01*
X6158210Y247500D01*
X6124870D01*
G01X6158210D02*
X6178210Y204000D01*
G01X6246780D02*
X6236110Y205500D01*
X6226780Y211500D01*
X6218780Y220500D01*
X6213450Y231000D01*
X6210780Y243000D01*
Y255000D01*
X6213450Y267000D01*
X6218780Y277500D01*
X6226780Y286500D01*
X6236110Y292500D01*
X6246780Y294000D01*
X6257450Y292500D01*
X6266780Y286500D01*
X6274780Y277500D01*
X6280110Y267000D01*
X6282780Y255000D01*
Y243000D01*
X6280110Y231000D01*
X6274780Y220500D01*
X6266780Y211500D01*
X6257450Y205500D01*
X6246780Y204000D01*
G01X6314020Y216000D02*
X6324690Y208500D01*
X6336690Y204000D01*
X6347350D01*
X6358020Y208500D01*
X6366020Y216000D01*
X6370020Y226500D01*
X6367350Y237000D01*
X6360690Y246000D01*
X6348690Y252000D01*
X6332690Y255000D01*
X6323350Y261000D01*
X6319350Y271500D01*
X6322020Y282000D01*
X6328690Y289500D01*
X6338020Y294000D01*
X6347350D01*
X6356690Y291000D01*
X6364690Y283500D01*
G01X6409260Y216000D02*
X6419930Y208500D01*
X6431930Y204000D01*
X6442590D01*
X6453260Y208500D01*
X6461260Y216000D01*
X6465260Y226500D01*
X6462590Y237000D01*
X6455930Y246000D01*
X6443930Y252000D01*
X6427930Y255000D01*
X6418590Y261000D01*
X6414590Y271500D01*
X6417260Y282000D01*
X6423930Y289500D01*
X6433260Y294000D01*
X6442590D01*
X6451930Y291000D01*
X6459930Y283500D01*
G01X6599740Y216000D02*
X6610410Y208500D01*
X6622410Y204000D01*
X6633070D01*
X6643740Y208500D01*
X6651740Y216000D01*
X6655740Y226500D01*
X6653070Y237000D01*
X6646410Y246000D01*
X6634410Y252000D01*
X6618410Y255000D01*
X6609070Y261000D01*
X6605070Y271500D01*
X6607740Y282000D01*
X6614410Y289500D01*
X6623740Y294000D01*
X6633070D01*
X6642410Y291000D01*
X6650410Y283500D01*
G01X6749650Y204000D02*
X6696310D01*
Y294000D01*
X6749650D01*
G01X6728310Y250500D02*
X6696310D01*
G01X6847550Y286500D02*
X6839550Y291000D01*
X6830220Y294000D01*
X6819550D01*
X6807550Y289500D01*
X6798220Y282000D01*
X6791550Y273000D01*
X6786220Y258000D01*
X6784890Y244500D01*
X6787550Y231000D01*
X6791550Y222000D01*
X6799550Y213000D01*
X6808890Y207000D01*
X6818220Y204000D01*
X6827550D01*
X6836890Y207000D01*
X6844890Y211500D01*
X6851550Y217500D01*
G01X6913460Y294000D02*
Y204000D01*
G01X6882790Y294000D02*
X6944130D01*
G01X6992700D02*
X7024700D01*
G01X7008700D02*
Y204000D01*
G01X6992700D02*
X7024700D01*
G01X7103940D02*
X7093270Y205500D01*
X7083940Y211500D01*
X7075940Y220500D01*
X7070610Y231000D01*
X7067940Y243000D01*
Y255000D01*
X7070610Y267000D01*
X7075940Y277500D01*
X7083940Y286500D01*
X7093270Y292500D01*
X7103940Y294000D01*
X7114610Y292500D01*
X7123940Y286500D01*
X7131940Y277500D01*
X7137270Y267000D01*
X7139940Y255000D01*
Y243000D01*
X7137270Y231000D01*
X7131940Y220500D01*
X7123940Y211500D01*
X7114610Y205500D01*
X7103940Y204000D01*
G01X7168510D02*
Y294000D01*
X7229850Y204000D01*
Y294000D01*
G01X7418990Y286500D02*
X7410990Y291000D01*
X7401660Y294000D01*
X7390990D01*
X7378990Y289500D01*
X7369660Y282000D01*
X7362990Y273000D01*
X7357660Y258000D01*
X7356330Y244500D01*
X7358990Y231000D01*
X7362990Y222000D01*
X7370990Y213000D01*
X7380330Y207000D01*
X7389660Y204000D01*
X7398990D01*
X7408330Y207000D01*
X7416330Y211500D01*
X7422990Y217500D01*
G01X7456900Y204000D02*
Y294000D01*
G01X7512900D02*
Y204000D01*
G01Y249000D02*
X7456900D01*
G01X7546810Y204000D02*
X7580140Y294000D01*
X7613470Y204000D01*
G01X7601470Y235500D02*
X7558810D01*
G01X7648710Y204000D02*
Y294000D01*
X7682050D01*
X7692710Y289500D01*
X7699380Y283500D01*
X7702050Y271500D01*
X7699380Y259500D01*
X7691380Y252000D01*
X7682050Y247500D01*
X7648710D01*
G01X7682050D02*
X7702050Y204000D01*
G01X7770620Y294000D02*
Y204000D01*
G01X7739950Y294000D02*
X7801290D01*
G01X5302000Y174000D02*
X5382000D01*
G01X5397240D02*
X5477240D01*
G01X5492480D02*
X5572480D01*
G01X5587720D02*
X5667720D01*
G01X5682960D02*
X5762960D01*
G01X5778200D02*
X5858200D01*
G01X5873440D02*
X5953440D01*
G01X5968680D02*
X6048680D01*
G01X6063920D02*
X6143920D01*
G01X6159160D02*
X6239160D01*
G01X6254400D02*
X6334400D01*
G01X6349640D02*
X6429640D01*
G01X6444880D02*
X6524880D01*
G01X6540120D02*
X6620120D01*
G01X6635360D02*
X6715360D01*
G01X6730600D02*
X6810600D01*
G01X6825840D02*
X6905840D01*
G01X6921080D02*
X7001080D01*
G01X7016320D02*
X7096320D01*
G01X7111560D02*
X7191560D01*
G01X7206800D02*
X7286800D01*
G01X7302040D02*
X7382040D01*
G01X7397280D02*
X7477280D01*
G01X7492520D02*
X7572520D01*
G01X7587760D02*
X7667760D01*
G01X7683000D02*
X7763000D01*
G01X7778240D02*
X7858240D01*
G01X5580100Y114000D02*
Y24000D01*
G01X5549430Y114000D02*
X5610770D01*
G01X5675340Y24000D02*
X5664670Y25500D01*
X5655340Y31500D01*
X5647340Y40500D01*
X5642010Y51000D01*
X5639340Y63000D01*
Y75000D01*
X5642010Y87000D01*
X5647340Y97500D01*
X5655340Y106500D01*
X5664670Y112500D01*
X5675340Y114000D01*
X5686010Y112500D01*
X5695340Y106500D01*
X5703340Y97500D01*
X5708670Y87000D01*
X5711340Y75000D01*
Y63000D01*
X5708670Y51000D01*
X5703340Y40500D01*
X5695340Y31500D01*
X5686010Y25500D01*
X5675340Y24000D01*
G01X5770580Y114000D02*
Y24000D01*
G01X5739910Y114000D02*
X5801250D01*
G01X5832490Y24000D02*
X5865820Y114000D01*
X5899150Y24000D01*
G01X5887150Y55500D02*
X5844490D01*
G01X5934390Y114000D02*
Y24000D01*
X5987730D01*
G01X6151540Y114000D02*
Y24000D01*
G01X6120870Y114000D02*
X6182210D01*
G01X6218780Y24000D02*
Y114000D01*
G01X6274780D02*
Y24000D01*
G01Y69000D02*
X6218780D01*
G01X6326020Y114000D02*
X6358020D01*
G01X6342020D02*
Y24000D01*
G01X6326020D02*
X6358020D01*
G01X6466590Y106500D02*
X6458590Y111000D01*
X6449260Y114000D01*
X6438590D01*
X6426590Y109500D01*
X6417260Y102000D01*
X6410590Y93000D01*
X6405260Y78000D01*
X6403930Y64500D01*
X6406590Y51000D01*
X6410590Y42000D01*
X6418590Y33000D01*
X6427930Y27000D01*
X6437260Y24000D01*
X6446590D01*
X6455930Y27000D01*
X6463930Y31500D01*
X6470590Y37500D01*
G01X6503170Y24000D02*
Y114000D01*
G01X6553830D02*
X6503170Y58500D01*
G01X6561830Y24000D02*
X6525830Y84000D01*
G01X6597070Y24000D02*
Y114000D01*
X6658410Y24000D01*
Y114000D01*
G01X6749650Y24000D02*
X6696310D01*
Y114000D01*
X6749650D01*
G01X6728310Y70500D02*
X6696310D01*
G01X6790220Y36000D02*
X6800890Y28500D01*
X6812890Y24000D01*
X6823550D01*
X6834220Y28500D01*
X6842220Y36000D01*
X6846220Y46500D01*
X6843550Y57000D01*
X6836890Y66000D01*
X6824890Y72000D01*
X6808890Y75000D01*
X6799550Y81000D01*
X6795550Y91500D01*
X6798220Y102000D01*
X6804890Y109500D01*
X6814220Y114000D01*
X6823550D01*
X6832890Y111000D01*
X6840890Y103500D01*
G01X6885460Y36000D02*
X6896130Y28500D01*
X6908130Y24000D01*
X6918790D01*
X6929460Y28500D01*
X6937460Y36000D01*
X6941460Y46500D01*
X6938790Y57000D01*
X6932130Y66000D01*
X6920130Y72000D01*
X6904130Y75000D01*
X6894790Y81000D01*
X6890790Y91500D01*
X6893460Y102000D01*
X6900130Y109500D01*
X6909460Y114000D01*
X6918790D01*
X6928130Y111000D01*
X6936130Y103500D01*
G01X7103940Y24000D02*
Y114000D01*
X7087940Y96000D01*
G01Y24000D02*
X7119940D01*
G01X7199180Y21000D02*
X7196510Y22500D01*
Y25500D01*
X7199180Y27000D01*
X7201850Y25500D01*
Y22500D01*
X7199180Y21000D01*
G01X7265090Y37500D02*
X7273090Y30000D01*
X7282420Y25500D01*
X7294420Y24000D01*
X7306420Y27000D01*
X7315750Y33000D01*
X7322420Y43500D01*
X7323750Y55500D01*
X7321090Y67500D01*
X7314420Y75000D01*
X7305090Y81000D01*
X7295750Y82500D01*
X7286420Y81000D01*
X7274420Y75000D01*
X7278420Y114000D01*
X7314420D01*
G01X7450230Y24000D02*
Y114000D01*
X7484900Y39000D01*
X7519570Y114000D01*
Y24000D01*
G01X7545470D02*
Y114000D01*
X7580140Y39000D01*
X7614810Y114000D01*
Y24000D01*
G01X6186600Y-1750000D02*
Y-3020000D01*
G01X6934630Y-2861250D02*
Y-2543750D01*
X7029120D01*
X7060610Y-2559630D01*
X7084240Y-2596670D01*
X7092110Y-2639000D01*
X7084240Y-2681330D01*
X7064550Y-2713090D01*
X7029120Y-2728970D01*
X6934630D01*
G01X7249590Y-2543750D02*
Y-2861250D01*
X7407070D01*
G01X7544860D02*
X7643290Y-2543750D01*
X7741720Y-2861250D01*
G01X7706280Y-2750130D02*
X7580290D01*
G01X7958250Y-2543750D02*
Y-2861250D01*
G01X7867700Y-2543750D02*
X8048800D01*
G01X8351950Y-2861250D02*
X8194470D01*
Y-2543750D01*
X8351950D01*
G01X8288960Y-2697200D02*
X8194470D01*
G01X8501560Y-2861250D02*
Y-2543750D01*
X8580290D01*
X8611790Y-2559630D01*
X8635410Y-2580790D01*
X8655100Y-2612540D01*
X8670850Y-2649590D01*
X8674780Y-2702500D01*
X8670850Y-2755420D01*
X8655100Y-2792460D01*
X8635410Y-2824220D01*
X8611790Y-2845380D01*
X8580290Y-2861250D01*
X8501560D01*
G01X6934630Y-2226250D02*
Y-1908750D01*
X7029120D01*
X7060610Y-1924630D01*
X7084240Y-1961670D01*
X7092110Y-2004000D01*
X7084240Y-2046330D01*
X7064550Y-2078090D01*
X7029120Y-2093970D01*
X6934630D01*
G01X7249590Y-1908750D02*
Y-2226250D01*
X7407070D01*
G01X7544860D02*
X7643290Y-1908750D01*
X7741720Y-2226250D01*
G01X7706280Y-2115130D02*
X7580290D01*
G01X7958250Y-1908750D02*
Y-2226250D01*
G01X7867700Y-1908750D02*
X8048800D01*
G01X8351950Y-2226250D02*
X8194470D01*
Y-1908750D01*
X8351950D01*
G01X8288960Y-2062200D02*
X8194470D01*
G01X8501560Y-2226250D02*
Y-1908750D01*
X8580290D01*
X8611790Y-1924630D01*
X8635410Y-1945790D01*
X8655100Y-1977540D01*
X8670850Y-2014590D01*
X8674780Y-2067500D01*
X8670850Y-2120420D01*
X8655100Y-2157460D01*
X8635410Y-2189220D01*
X8611790Y-2210380D01*
X8580290Y-2226250D01*
X8501560D01*
G01X6516620Y5827800D02*
X6426620D01*
X6444620Y5811800D01*
G01X6516620D02*
Y5843800D01*
G01X6486620Y5905710D02*
Y5940370D01*
G01X6441620Y5992950D02*
X6432620Y6000950D01*
X6428120Y6010280D01*
X6426620Y6020950D01*
X6429620Y6034280D01*
X6437120Y6043610D01*
X6446120Y6046280D01*
X6455120Y6044950D01*
X6462620Y6039610D01*
X6477620Y6012950D01*
X6488120Y6000950D01*
X6503120Y5992950D01*
X6516620Y5990280D01*
Y6046280D01*
G01X7450690Y629000D02*
Y539000D01*
X7504030D01*
G01X7547270Y614000D02*
X7555270Y623000D01*
X7564600Y627500D01*
X7575270Y629000D01*
X7588600Y626000D01*
X7597930Y618500D01*
X7600600Y609500D01*
X7599270Y600500D01*
X7593930Y593000D01*
X7567270Y578000D01*
X7555270Y567500D01*
X7547270Y552500D01*
X7544600Y539000D01*
X7600600D01*
G01X7667840Y536000D02*
X7665170Y537500D01*
Y540500D01*
X7667840Y542000D01*
X7670510Y540500D01*
Y537500D01*
X7667840Y536000D01*
G01Y576500D02*
X7665170Y578000D01*
Y581000D01*
X7667840Y582500D01*
X7670510Y581000D01*
Y578000D01*
X7667840Y576500D01*
G01X7868990Y587000D02*
X7874320Y591500D01*
X7878320Y599000D01*
X7880990Y609500D01*
X7878320Y618500D01*
X7872990Y624500D01*
X7863650Y629000D01*
X7827650D01*
Y539000D01*
X7871650D01*
X7880990Y545000D01*
X7886320Y554000D01*
X7888990Y564500D01*
X7886320Y575000D01*
X7878320Y584000D01*
X7868990Y587000D01*
X7827650D01*
G01X7953560Y539000D02*
X7942890Y540500D01*
X7933560Y546500D01*
X7925560Y555500D01*
X7920230Y566000D01*
X7917560Y578000D01*
Y590000D01*
X7920230Y602000D01*
X7925560Y612500D01*
X7933560Y621500D01*
X7942890Y627500D01*
X7953560Y629000D01*
X7964230Y627500D01*
X7973560Y621500D01*
X7981560Y612500D01*
X7986890Y602000D01*
X7989560Y590000D01*
Y578000D01*
X7986890Y566000D01*
X7981560Y555500D01*
X7973560Y546500D01*
X7964230Y540500D01*
X7953560Y539000D01*
G01X8048800Y629000D02*
Y539000D01*
G01X8018130Y629000D02*
X8079470D01*
G01X8144040D02*
Y539000D01*
G01X8113370Y629000D02*
X8174710D01*
G01X8239280Y539000D02*
X8228610Y540500D01*
X8219280Y546500D01*
X8211280Y555500D01*
X8205950Y566000D01*
X8203280Y578000D01*
Y590000D01*
X8205950Y602000D01*
X8211280Y612500D01*
X8219280Y621500D01*
X8228610Y627500D01*
X8239280Y629000D01*
X8249950Y627500D01*
X8259280Y621500D01*
X8267280Y612500D01*
X8272610Y602000D01*
X8275280Y590000D01*
Y578000D01*
X8272610Y566000D01*
X8267280Y555500D01*
X8259280Y546500D01*
X8249950Y540500D01*
X8239280Y539000D01*
G01X8299850D02*
Y629000D01*
X8334520Y554000D01*
X8369190Y629000D01*
Y539000D01*
G01X8554330Y621500D02*
X8546330Y626000D01*
X8537000Y629000D01*
X8526330D01*
X8514330Y624500D01*
X8505000Y617000D01*
X8498330Y608000D01*
X8493000Y593000D01*
X8491670Y579500D01*
X8494330Y566000D01*
X8498330Y557000D01*
X8506330Y548000D01*
X8515670Y542000D01*
X8525000Y539000D01*
X8534330D01*
X8543670Y542000D01*
X8551670Y546500D01*
X8558330Y552500D01*
G01X8620240Y539000D02*
X8609570Y540500D01*
X8600240Y546500D01*
X8592240Y555500D01*
X8586910Y566000D01*
X8584240Y578000D01*
Y590000D01*
X8586910Y602000D01*
X8592240Y612500D01*
X8600240Y621500D01*
X8609570Y627500D01*
X8620240Y629000D01*
X8630910Y627500D01*
X8640240Y621500D01*
X8648240Y612500D01*
X8653570Y602000D01*
X8656240Y590000D01*
Y578000D01*
X8653570Y566000D01*
X8648240Y555500D01*
X8640240Y546500D01*
X8630910Y540500D01*
X8620240Y539000D01*
G01X8684810D02*
Y629000D01*
X8746150Y539000D01*
Y629000D01*
G01X8781390Y539000D02*
Y629000D01*
X8808050D01*
X8818720Y624500D01*
X8826720Y618500D01*
X8833390Y609500D01*
X8838720Y599000D01*
X8840050Y584000D01*
X8838720Y569000D01*
X8833390Y558500D01*
X8826720Y549500D01*
X8818720Y543500D01*
X8808050Y539000D01*
X8781390D01*
G01X8876630Y629000D02*
Y564500D01*
X8881960Y551000D01*
X8892630Y542000D01*
X8905960Y539000D01*
X8919290Y542000D01*
X8929960Y551000D01*
X8935290Y564500D01*
Y629000D01*
G01X9030530Y621500D02*
X9022530Y626000D01*
X9013200Y629000D01*
X9002530D01*
X8990530Y624500D01*
X8981200Y617000D01*
X8974530Y608000D01*
X8969200Y593000D01*
X8967870Y579500D01*
X8970530Y566000D01*
X8974530Y557000D01*
X8982530Y548000D01*
X8991870Y542000D01*
X9001200Y539000D01*
X9010530D01*
X9019870Y542000D01*
X9027870Y546500D01*
X9034530Y552500D01*
G01X9096440Y629000D02*
Y539000D01*
G01X9065770Y629000D02*
X9127110D01*
G01X9191680Y539000D02*
X9181010Y540500D01*
X9171680Y546500D01*
X9163680Y555500D01*
X9158350Y566000D01*
X9155680Y578000D01*
Y590000D01*
X9158350Y602000D01*
X9163680Y612500D01*
X9171680Y621500D01*
X9181010Y627500D01*
X9191680Y629000D01*
X9202350Y627500D01*
X9211680Y621500D01*
X9219680Y612500D01*
X9225010Y602000D01*
X9227680Y590000D01*
Y578000D01*
X9225010Y566000D01*
X9219680Y555500D01*
X9211680Y546500D01*
X9202350Y540500D01*
X9191680Y539000D01*
G01X9260250D02*
Y629000D01*
X9293590D01*
X9304250Y624500D01*
X9310920Y618500D01*
X9313590Y606500D01*
X9310920Y594500D01*
X9302920Y587000D01*
X9293590Y582500D01*
X9260250D01*
G01X9293590D02*
X9313590Y539000D01*
G01X9460070Y569000D02*
X9494730D01*
G01X9697210Y621500D02*
X9689210Y626000D01*
X9679880Y629000D01*
X9669210D01*
X9657210Y624500D01*
X9647880Y617000D01*
X9641210Y608000D01*
X9635880Y593000D01*
X9634550Y579500D01*
X9637210Y566000D01*
X9641210Y557000D01*
X9649210Y548000D01*
X9658550Y542000D01*
X9667880Y539000D01*
X9677210D01*
X9686550Y542000D01*
X9694550Y546500D01*
X9701210Y552500D01*
G01X9763120Y539000D02*
X9752450Y540500D01*
X9743120Y546500D01*
X9735120Y555500D01*
X9729790Y566000D01*
X9727120Y578000D01*
Y590000D01*
X9729790Y602000D01*
X9735120Y612500D01*
X9743120Y621500D01*
X9752450Y627500D01*
X9763120Y629000D01*
X9773790Y627500D01*
X9783120Y621500D01*
X9791120Y612500D01*
X9796450Y602000D01*
X9799120Y590000D01*
Y578000D01*
X9796450Y566000D01*
X9791120Y555500D01*
X9783120Y546500D01*
X9773790Y540500D01*
X9763120Y539000D01*
G01X9831690D02*
Y629000D01*
X9863690D01*
X9874360Y624500D01*
X9882360Y614000D01*
X9885030Y602000D01*
X9882360Y590000D01*
X9875690Y581000D01*
X9863690Y576500D01*
X9831690D01*
G01X9926930Y539000D02*
Y629000D01*
X9958930D01*
X9969600Y624500D01*
X9977600Y614000D01*
X9980270Y602000D01*
X9977600Y590000D01*
X9970930Y581000D01*
X9958930Y576500D01*
X9926930D01*
G01X10075510Y539000D02*
X10022170D01*
Y629000D01*
X10075510D01*
G01X10054170Y585500D02*
X10022170D01*
G01X10117410Y539000D02*
Y629000D01*
X10150750D01*
X10161410Y624500D01*
X10168080Y618500D01*
X10170750Y606500D01*
X10168080Y594500D01*
X10160080Y587000D01*
X10150750Y582500D01*
X10117410D01*
G01X10150750D02*
X10170750Y539000D01*
G01X10334560Y629000D02*
X10323890Y626000D01*
X10315890Y618500D01*
X10310560Y609500D01*
X10306560Y597500D01*
X10305230Y584000D01*
X10306560Y570500D01*
X10310560Y558500D01*
X10315890Y549500D01*
X10323890Y542000D01*
X10334560Y539000D01*
X10345230Y542000D01*
X10353230Y549500D01*
X10358560Y558500D01*
X10362560Y570500D01*
X10363890Y584000D01*
X10362560Y597500D01*
X10358560Y609500D01*
X10353230Y618500D01*
X10345230Y626000D01*
X10334560Y629000D01*
G01X10429800Y536000D02*
X10427130Y537500D01*
Y540500D01*
X10429800Y542000D01*
X10432470Y540500D01*
Y537500D01*
X10429800Y536000D01*
G01X10525040Y629000D02*
X10514370Y626000D01*
X10506370Y618500D01*
X10501040Y609500D01*
X10497040Y597500D01*
X10495710Y584000D01*
X10497040Y570500D01*
X10501040Y558500D01*
X10506370Y549500D01*
X10514370Y542000D01*
X10525040Y539000D01*
X10535710Y542000D01*
X10543710Y549500D01*
X10549040Y558500D01*
X10553040Y570500D01*
X10554370Y584000D01*
X10553040Y597500D01*
X10549040Y609500D01*
X10543710Y618500D01*
X10535710Y626000D01*
X10525040Y629000D01*
G01X10620280Y539000D02*
Y629000D01*
X10604280Y611000D01*
G01Y539000D02*
X10636280D01*
G01X10715520D02*
X10724850Y540500D01*
X10735520Y545000D01*
X10742190Y552500D01*
X10744850Y563000D01*
X10742190Y573500D01*
X10734190Y582500D01*
X10722190Y587000D01*
X10708850D01*
X10700850Y590000D01*
X10694190Y597500D01*
X10691520Y608000D01*
X10695520Y618500D01*
X10704850Y626000D01*
X10715520Y629000D01*
X10726190Y626000D01*
X10735520Y618500D01*
X10739520Y608000D01*
X10736850Y597500D01*
X10730190Y590000D01*
X10722190Y587000D01*
X10708850D01*
X10696850Y582500D01*
X10688850Y573500D01*
X10686190Y563000D01*
X10688850Y552500D01*
X10695520Y545000D01*
X10706190Y540500D01*
X10715520Y539000D01*
G01X10871330D02*
Y629000D01*
X10906000Y554000D01*
X10940670Y629000D01*
Y539000D01*
G01X10966570D02*
Y629000D01*
X11001240Y554000D01*
X11035910Y629000D01*
Y539000D01*
G01X7638510Y416000D02*
X7697170Y482000D01*
G01X7667840Y494000D02*
Y404000D01*
G01X7697170Y416000D02*
X7638510Y482000D01*
G01X7627840Y449000D02*
X7707840D01*
G01X7925560Y431000D02*
X7936230Y423500D01*
X7948230Y419000D01*
X7958890D01*
X7969560Y423500D01*
X7977560Y431000D01*
X7981560Y441500D01*
X7978890Y452000D01*
X7972230Y461000D01*
X7960230Y467000D01*
X7944230Y470000D01*
X7934890Y476000D01*
X7930890Y486500D01*
X7933560Y497000D01*
X7940230Y504500D01*
X7949560Y509000D01*
X7958890D01*
X7968230Y506000D01*
X7976230Y498500D01*
G01X8019470Y509000D02*
Y444500D01*
X8024800Y431000D01*
X8035470Y422000D01*
X8048800Y419000D01*
X8062130Y422000D01*
X8072800Y431000D01*
X8078130Y444500D01*
Y509000D01*
G01X8117370Y419000D02*
Y509000D01*
X8150710D01*
X8161370Y504500D01*
X8168040Y498500D01*
X8170710Y486500D01*
X8168040Y474500D01*
X8160040Y467000D01*
X8150710Y462500D01*
X8117370D01*
G01X8150710D02*
X8170710Y419000D01*
G01X8213950D02*
Y509000D01*
X8264610D01*
G01X8245950Y465500D02*
X8213950D01*
G01X8301190Y419000D02*
X8334520Y509000D01*
X8367850Y419000D01*
G01X8355850Y450500D02*
X8313190D01*
G01X8459090Y501500D02*
X8451090Y506000D01*
X8441760Y509000D01*
X8431090D01*
X8419090Y504500D01*
X8409760Y497000D01*
X8403090Y488000D01*
X8397760Y473000D01*
X8396430Y459500D01*
X8399090Y446000D01*
X8403090Y437000D01*
X8411090Y428000D01*
X8420430Y422000D01*
X8429760Y419000D01*
X8439090D01*
X8448430Y422000D01*
X8456430Y426500D01*
X8463090Y432500D01*
G01X8551670Y419000D02*
X8498330D01*
Y509000D01*
X8551670D01*
G01X8530330Y465500D02*
X8498330D01*
G01X8698150Y449000D02*
X8732810D01*
G01X8872630Y419000D02*
X8905960Y509000D01*
X8939290Y419000D01*
G01X8927290Y450500D02*
X8884630D01*
G01X8985200Y509000D02*
X9017200D01*
G01X9001200D02*
Y419000D01*
G01X8985200D02*
X9017200D01*
G01X9069770D02*
Y509000D01*
X9103110D01*
X9113770Y504500D01*
X9120440Y498500D01*
X9123110Y486500D01*
X9120440Y474500D01*
X9112440Y467000D01*
X9103110Y462500D01*
X9069770D01*
G01X9103110D02*
X9123110Y419000D01*
G01X9286920Y509000D02*
X9276250Y506000D01*
X9268250Y498500D01*
X9262920Y489500D01*
X9258920Y477500D01*
X9257590Y464000D01*
X9258920Y450500D01*
X9262920Y438500D01*
X9268250Y429500D01*
X9276250Y422000D01*
X9286920Y419000D01*
X9297590Y422000D01*
X9305590Y429500D01*
X9310920Y438500D01*
X9314920Y450500D01*
X9316250Y464000D01*
X9314920Y477500D01*
X9310920Y489500D01*
X9305590Y498500D01*
X9297590Y506000D01*
X9286920Y509000D01*
G01X9442730Y419000D02*
Y509000D01*
X9477400Y434000D01*
X9512070Y509000D01*
Y419000D01*
G01X9537970D02*
Y509000D01*
X9572640Y434000D01*
X9607310Y509000D01*
Y419000D01*
G01X7638510Y3144800D02*
X7697170Y3210800D01*
G01X7667840Y3222800D02*
Y3132800D01*
G01X7697170Y3144800D02*
X7638510Y3210800D01*
G01X7627840Y3177800D02*
X7707840D01*
G01X7924230Y3147800D02*
Y3237800D01*
X7950890D01*
X7961560Y3233300D01*
X7969560Y3227300D01*
X7976230Y3218300D01*
X7981560Y3207800D01*
X7982890Y3192800D01*
X7981560Y3177800D01*
X7976230Y3167300D01*
X7969560Y3158300D01*
X7961560Y3152300D01*
X7950890Y3147800D01*
X7924230D01*
G01X8032800Y3237800D02*
X8064800D01*
G01X8048800D02*
Y3147800D01*
G01X8032800D02*
X8064800D01*
G01X8170710D02*
X8117370D01*
Y3237800D01*
X8170710D01*
G01X8149370Y3194300D02*
X8117370D01*
G01X8212610Y3237800D02*
Y3147800D01*
X8265950D01*
G01X8361190D02*
X8307850D01*
Y3237800D01*
X8361190D01*
G01X8339850Y3194300D02*
X8307850D01*
G01X8459090Y3230300D02*
X8451090Y3234800D01*
X8441760Y3237800D01*
X8431090D01*
X8419090Y3233300D01*
X8409760Y3225800D01*
X8403090Y3216800D01*
X8397760Y3201800D01*
X8396430Y3188300D01*
X8399090Y3174800D01*
X8403090Y3165800D01*
X8411090Y3156800D01*
X8420430Y3150800D01*
X8429760Y3147800D01*
X8439090D01*
X8448430Y3150800D01*
X8456430Y3155300D01*
X8463090Y3161300D01*
G01X8525000Y3237800D02*
Y3147800D01*
G01X8494330Y3237800D02*
X8555670D01*
G01X8593570Y3147800D02*
Y3237800D01*
X8626910D01*
X8637570Y3233300D01*
X8644240Y3227300D01*
X8646910Y3215300D01*
X8644240Y3203300D01*
X8636240Y3195800D01*
X8626910Y3191300D01*
X8593570D01*
G01X8626910D02*
X8646910Y3147800D01*
G01X8699480Y3237800D02*
X8731480D01*
G01X8715480D02*
Y3147800D01*
G01X8699480D02*
X8731480D01*
G01X8840050Y3230300D02*
X8832050Y3234800D01*
X8822720Y3237800D01*
X8812050D01*
X8800050Y3233300D01*
X8790720Y3225800D01*
X8784050Y3216800D01*
X8778720Y3201800D01*
X8777390Y3188300D01*
X8780050Y3174800D01*
X8784050Y3165800D01*
X8792050Y3156800D01*
X8801390Y3150800D01*
X8810720Y3147800D01*
X8820050D01*
X8829390Y3150800D01*
X8837390Y3155300D01*
X8844050Y3161300D01*
G01X8983870Y3177800D02*
X9018530D01*
G01X9166350Y3147800D02*
Y3237800D01*
X9217010D01*
G01X9198350Y3194300D02*
X9166350D01*
G01X9260250Y3147800D02*
Y3237800D01*
X9293590D01*
X9304250Y3233300D01*
X9310920Y3227300D01*
X9313590Y3215300D01*
X9310920Y3203300D01*
X9302920Y3195800D01*
X9293590Y3191300D01*
X9260250D01*
G01X9293590D02*
X9313590Y3147800D01*
G01X9364830Y3177800D02*
X9399490D01*
G01X9493400Y3147800D02*
Y3237800D01*
X9444070Y3173300D01*
X9510730D01*
G01X9667880Y3147800D02*
Y3237800D01*
X9651880Y3219800D01*
G01Y3147800D02*
X9683880D01*
G01X9763120Y3144800D02*
X9760450Y3146300D01*
Y3149300D01*
X9763120Y3150800D01*
X9765790Y3149300D01*
Y3146300D01*
X9763120Y3144800D01*
G01X9874360Y3147800D02*
Y3237800D01*
X9825030Y3173300D01*
X9891690D01*
G01X9928270Y3185300D02*
X9937600Y3195800D01*
X9945600Y3201800D01*
X9956270Y3204800D01*
X9965600Y3201800D01*
X9972270Y3195800D01*
X9977600Y3186800D01*
X9978930Y3176300D01*
X9977600Y3167300D01*
X9972270Y3158300D01*
X9964270Y3150800D01*
X9954930Y3147800D01*
X9944270Y3150800D01*
X9934930Y3159800D01*
X9929600Y3173300D01*
X9928270Y3188300D01*
X9930930Y3207800D01*
X9934930Y3218300D01*
X9941600Y3228800D01*
X9950930Y3236300D01*
X9960270Y3237800D01*
X9969600Y3234800D01*
X9976270Y3227300D01*
G01X10064840Y3147800D02*
Y3237800D01*
X10015510Y3173300D01*
X10082170D01*
G01X10204650Y3147800D02*
Y3237800D01*
X10239320Y3162800D01*
X10273990Y3237800D01*
Y3147800D01*
G01X10299890D02*
Y3237800D01*
X10334560Y3162800D01*
X10369230Y3237800D01*
Y3147800D01*
G01X7450690Y5667800D02*
Y5577800D01*
X7504030D01*
G01X7572600D02*
Y5667800D01*
X7556600Y5649800D01*
G01Y5577800D02*
X7588600D01*
G01X7667840Y5574800D02*
X7665170Y5576300D01*
Y5579300D01*
X7667840Y5580800D01*
X7670510Y5579300D01*
Y5576300D01*
X7667840Y5574800D01*
G01Y5615300D02*
X7665170Y5616800D01*
Y5619800D01*
X7667840Y5621300D01*
X7670510Y5619800D01*
Y5616800D01*
X7667840Y5615300D01*
G01X7858320Y5667800D02*
Y5577800D01*
G01X7827650Y5667800D02*
X7888990D01*
G01X7953560Y5577800D02*
X7942890Y5579300D01*
X7933560Y5585300D01*
X7925560Y5594300D01*
X7920230Y5604800D01*
X7917560Y5616800D01*
Y5628800D01*
X7920230Y5640800D01*
X7925560Y5651300D01*
X7933560Y5660300D01*
X7942890Y5666300D01*
X7953560Y5667800D01*
X7964230Y5666300D01*
X7973560Y5660300D01*
X7981560Y5651300D01*
X7986890Y5640800D01*
X7989560Y5628800D01*
Y5616800D01*
X7986890Y5604800D01*
X7981560Y5594300D01*
X7973560Y5585300D01*
X7964230Y5579300D01*
X7953560Y5577800D01*
G01X8022130D02*
Y5667800D01*
X8054130D01*
X8064800Y5663300D01*
X8072800Y5652800D01*
X8075470Y5640800D01*
X8072800Y5628800D01*
X8066130Y5619800D01*
X8054130Y5615300D01*
X8022130D01*
G01X8268610Y5660300D02*
X8260610Y5664800D01*
X8251280Y5667800D01*
X8240610D01*
X8228610Y5663300D01*
X8219280Y5655800D01*
X8212610Y5646800D01*
X8207280Y5631800D01*
X8205950Y5618300D01*
X8208610Y5604800D01*
X8212610Y5595800D01*
X8220610Y5586800D01*
X8229950Y5580800D01*
X8239280Y5577800D01*
X8248610D01*
X8257950Y5580800D01*
X8265950Y5585300D01*
X8272610Y5591300D01*
G01X8334520Y5577800D02*
X8323850Y5579300D01*
X8314520Y5585300D01*
X8306520Y5594300D01*
X8301190Y5604800D01*
X8298520Y5616800D01*
Y5628800D01*
X8301190Y5640800D01*
X8306520Y5651300D01*
X8314520Y5660300D01*
X8323850Y5666300D01*
X8334520Y5667800D01*
X8345190Y5666300D01*
X8354520Y5660300D01*
X8362520Y5651300D01*
X8367850Y5640800D01*
X8370520Y5628800D01*
Y5616800D01*
X8367850Y5604800D01*
X8362520Y5594300D01*
X8354520Y5585300D01*
X8345190Y5579300D01*
X8334520Y5577800D01*
G01X8399090D02*
Y5667800D01*
X8460430Y5577800D01*
Y5667800D01*
G01X8495670Y5577800D02*
Y5667800D01*
X8522330D01*
X8533000Y5663300D01*
X8541000Y5657300D01*
X8547670Y5648300D01*
X8553000Y5637800D01*
X8554330Y5622800D01*
X8553000Y5607800D01*
X8547670Y5597300D01*
X8541000Y5588300D01*
X8533000Y5582300D01*
X8522330Y5577800D01*
X8495670D01*
G01X8590910Y5667800D02*
Y5603300D01*
X8596240Y5589800D01*
X8606910Y5580800D01*
X8620240Y5577800D01*
X8633570Y5580800D01*
X8644240Y5589800D01*
X8649570Y5603300D01*
Y5667800D01*
G01X8744810Y5660300D02*
X8736810Y5664800D01*
X8727480Y5667800D01*
X8716810D01*
X8704810Y5663300D01*
X8695480Y5655800D01*
X8688810Y5646800D01*
X8683480Y5631800D01*
X8682150Y5618300D01*
X8684810Y5604800D01*
X8688810Y5595800D01*
X8696810Y5586800D01*
X8706150Y5580800D01*
X8715480Y5577800D01*
X8724810D01*
X8734150Y5580800D01*
X8742150Y5585300D01*
X8748810Y5591300D01*
G01X8810720Y5667800D02*
Y5577800D01*
G01X8780050Y5667800D02*
X8841390D01*
G01X8905960Y5577800D02*
X8895290Y5579300D01*
X8885960Y5585300D01*
X8877960Y5594300D01*
X8872630Y5604800D01*
X8869960Y5616800D01*
Y5628800D01*
X8872630Y5640800D01*
X8877960Y5651300D01*
X8885960Y5660300D01*
X8895290Y5666300D01*
X8905960Y5667800D01*
X8916630Y5666300D01*
X8925960Y5660300D01*
X8933960Y5651300D01*
X8939290Y5640800D01*
X8941960Y5628800D01*
Y5616800D01*
X8939290Y5604800D01*
X8933960Y5594300D01*
X8925960Y5585300D01*
X8916630Y5579300D01*
X8905960Y5577800D01*
G01X8974530D02*
Y5667800D01*
X9007870D01*
X9018530Y5663300D01*
X9025200Y5657300D01*
X9027870Y5645300D01*
X9025200Y5633300D01*
X9017200Y5625800D01*
X9007870Y5621300D01*
X8974530D01*
G01X9007870D02*
X9027870Y5577800D01*
G01X9174350Y5607800D02*
X9209010D01*
G01X9411490Y5660300D02*
X9403490Y5664800D01*
X9394160Y5667800D01*
X9383490D01*
X9371490Y5663300D01*
X9362160Y5655800D01*
X9355490Y5646800D01*
X9350160Y5631800D01*
X9348830Y5618300D01*
X9351490Y5604800D01*
X9355490Y5595800D01*
X9363490Y5586800D01*
X9372830Y5580800D01*
X9382160Y5577800D01*
X9391490D01*
X9400830Y5580800D01*
X9408830Y5585300D01*
X9415490Y5591300D01*
G01X9477400Y5577800D02*
X9466730Y5579300D01*
X9457400Y5585300D01*
X9449400Y5594300D01*
X9444070Y5604800D01*
X9441400Y5616800D01*
Y5628800D01*
X9444070Y5640800D01*
X9449400Y5651300D01*
X9457400Y5660300D01*
X9466730Y5666300D01*
X9477400Y5667800D01*
X9488070Y5666300D01*
X9497400Y5660300D01*
X9505400Y5651300D01*
X9510730Y5640800D01*
X9513400Y5628800D01*
Y5616800D01*
X9510730Y5604800D01*
X9505400Y5594300D01*
X9497400Y5585300D01*
X9488070Y5579300D01*
X9477400Y5577800D01*
G01X9545970D02*
Y5667800D01*
X9577970D01*
X9588640Y5663300D01*
X9596640Y5652800D01*
X9599310Y5640800D01*
X9596640Y5628800D01*
X9589970Y5619800D01*
X9577970Y5615300D01*
X9545970D01*
G01X9641210Y5577800D02*
Y5667800D01*
X9673210D01*
X9683880Y5663300D01*
X9691880Y5652800D01*
X9694550Y5640800D01*
X9691880Y5628800D01*
X9685210Y5619800D01*
X9673210Y5615300D01*
X9641210D01*
G01X9789790Y5577800D02*
X9736450D01*
Y5667800D01*
X9789790D01*
G01X9768450Y5624300D02*
X9736450D01*
G01X9831690Y5577800D02*
Y5667800D01*
X9865030D01*
X9875690Y5663300D01*
X9882360Y5657300D01*
X9885030Y5645300D01*
X9882360Y5633300D01*
X9874360Y5625800D01*
X9865030Y5621300D01*
X9831690D01*
G01X9865030D02*
X9885030Y5577800D01*
G01X10048840Y5667800D02*
X10038170Y5664800D01*
X10030170Y5657300D01*
X10024840Y5648300D01*
X10020840Y5636300D01*
X10019510Y5622800D01*
X10020840Y5609300D01*
X10024840Y5597300D01*
X10030170Y5588300D01*
X10038170Y5580800D01*
X10048840Y5577800D01*
X10059510Y5580800D01*
X10067510Y5588300D01*
X10072840Y5597300D01*
X10076840Y5609300D01*
X10078170Y5622800D01*
X10076840Y5636300D01*
X10072840Y5648300D01*
X10067510Y5657300D01*
X10059510Y5664800D01*
X10048840Y5667800D01*
G01X10144080Y5574800D02*
X10141410Y5576300D01*
Y5579300D01*
X10144080Y5580800D01*
X10146750Y5579300D01*
Y5576300D01*
X10144080Y5574800D01*
G01X10239320Y5667800D02*
X10228650Y5664800D01*
X10220650Y5657300D01*
X10215320Y5648300D01*
X10211320Y5636300D01*
X10209990Y5622800D01*
X10211320Y5609300D01*
X10215320Y5597300D01*
X10220650Y5588300D01*
X10228650Y5580800D01*
X10239320Y5577800D01*
X10249990Y5580800D01*
X10257990Y5588300D01*
X10263320Y5597300D01*
X10267320Y5609300D01*
X10268650Y5622800D01*
X10267320Y5636300D01*
X10263320Y5648300D01*
X10257990Y5657300D01*
X10249990Y5664800D01*
X10239320Y5667800D01*
G01X10334560Y5577800D02*
Y5667800D01*
X10318560Y5649800D01*
G01Y5577800D02*
X10350560D01*
G01X10429800D02*
X10439130Y5579300D01*
X10449800Y5583800D01*
X10456470Y5591300D01*
X10459130Y5601800D01*
X10456470Y5612300D01*
X10448470Y5621300D01*
X10436470Y5625800D01*
X10423130D01*
X10415130Y5628800D01*
X10408470Y5636300D01*
X10405800Y5646800D01*
X10409800Y5657300D01*
X10419130Y5664800D01*
X10429800Y5667800D01*
X10440470Y5664800D01*
X10449800Y5657300D01*
X10453800Y5646800D01*
X10451130Y5636300D01*
X10444470Y5628800D01*
X10436470Y5625800D01*
X10423130D01*
X10411130Y5621300D01*
X10403130Y5612300D01*
X10400470Y5601800D01*
X10403130Y5591300D01*
X10409800Y5583800D01*
X10420470Y5579300D01*
X10429800Y5577800D01*
G01X10585610D02*
Y5667800D01*
X10620280Y5592800D01*
X10654950Y5667800D01*
Y5577800D01*
G01X10680850D02*
Y5667800D01*
X10715520Y5592800D01*
X10750190Y5667800D01*
Y5577800D01*
G01X7638510Y5724800D02*
X7697170Y5790800D01*
G01X7667840Y5802800D02*
Y5712800D01*
G01X7697170Y5724800D02*
X7638510Y5790800D01*
G01X7627840Y5757800D02*
X7707840D01*
G01X7925560Y5739800D02*
X7936230Y5732300D01*
X7948230Y5727800D01*
X7958890D01*
X7969560Y5732300D01*
X7977560Y5739800D01*
X7981560Y5750300D01*
X7978890Y5760800D01*
X7972230Y5769800D01*
X7960230Y5775800D01*
X7944230Y5778800D01*
X7934890Y5784800D01*
X7930890Y5795300D01*
X7933560Y5805800D01*
X7940230Y5813300D01*
X7949560Y5817800D01*
X7958890D01*
X7968230Y5814800D01*
X7976230Y5807300D01*
G01X8019470Y5817800D02*
Y5753300D01*
X8024800Y5739800D01*
X8035470Y5730800D01*
X8048800Y5727800D01*
X8062130Y5730800D01*
X8072800Y5739800D01*
X8078130Y5753300D01*
Y5817800D01*
G01X8117370Y5727800D02*
Y5817800D01*
X8150710D01*
X8161370Y5813300D01*
X8168040Y5807300D01*
X8170710Y5795300D01*
X8168040Y5783300D01*
X8160040Y5775800D01*
X8150710Y5771300D01*
X8117370D01*
G01X8150710D02*
X8170710Y5727800D01*
G01X8213950D02*
Y5817800D01*
X8264610D01*
G01X8245950Y5774300D02*
X8213950D01*
G01X8301190Y5727800D02*
X8334520Y5817800D01*
X8367850Y5727800D01*
G01X8355850Y5759300D02*
X8313190D01*
G01X8459090Y5810300D02*
X8451090Y5814800D01*
X8441760Y5817800D01*
X8431090D01*
X8419090Y5813300D01*
X8409760Y5805800D01*
X8403090Y5796800D01*
X8397760Y5781800D01*
X8396430Y5768300D01*
X8399090Y5754800D01*
X8403090Y5745800D01*
X8411090Y5736800D01*
X8420430Y5730800D01*
X8429760Y5727800D01*
X8439090D01*
X8448430Y5730800D01*
X8456430Y5735300D01*
X8463090Y5741300D01*
G01X8551670Y5727800D02*
X8498330D01*
Y5817800D01*
X8551670D01*
G01X8530330Y5774300D02*
X8498330D01*
G01X8698150Y5757800D02*
X8732810D01*
G01X8872630Y5727800D02*
X8905960Y5817800D01*
X8939290Y5727800D01*
G01X8927290Y5759300D02*
X8884630D01*
G01X8985200Y5817800D02*
X9017200D01*
G01X9001200D02*
Y5727800D01*
G01X8985200D02*
X9017200D01*
G01X9069770D02*
Y5817800D01*
X9103110D01*
X9113770Y5813300D01*
X9120440Y5807300D01*
X9123110Y5795300D01*
X9120440Y5783300D01*
X9112440Y5775800D01*
X9103110Y5771300D01*
X9069770D01*
G01X9103110D02*
X9123110Y5727800D01*
G01X9286920Y5817800D02*
X9276250Y5814800D01*
X9268250Y5807300D01*
X9262920Y5798300D01*
X9258920Y5786300D01*
X9257590Y5772800D01*
X9258920Y5759300D01*
X9262920Y5747300D01*
X9268250Y5738300D01*
X9276250Y5730800D01*
X9286920Y5727800D01*
X9297590Y5730800D01*
X9305590Y5738300D01*
X9310920Y5747300D01*
X9314920Y5759300D01*
X9316250Y5772800D01*
X9314920Y5786300D01*
X9310920Y5798300D01*
X9305590Y5807300D01*
X9297590Y5814800D01*
X9286920Y5817800D01*
G01X9442730Y5727800D02*
Y5817800D01*
X9477400Y5742800D01*
X9512070Y5817800D01*
Y5727800D01*
G01X9537970D02*
Y5817800D01*
X9572640Y5742800D01*
X9607310Y5817800D01*
Y5727800D01*
G01X10241710Y-2861250D02*
Y-2543750D01*
X10194470Y-2607250D01*
G01Y-2861250D02*
X10288950D01*
G01X10548790D02*
X10556670Y-2792460D01*
X10568480Y-2734260D01*
X10584230Y-2681330D01*
X10603910Y-2623130D01*
X10635410Y-2543750D01*
X10477930D01*
G01X9414940Y-1750000D02*
Y-3020000D01*
G01X10084230Y-2226250D02*
X10052730Y-2220960D01*
X10025180Y-2199800D01*
X10001550Y-2168040D01*
X9985800Y-2131000D01*
X9977930Y-2088670D01*
Y-2046330D01*
X9985800Y-2004000D01*
X10001550Y-1966960D01*
X10025180Y-1935210D01*
X10052730Y-1914040D01*
X10084230Y-1908750D01*
X10115720Y-1914040D01*
X10143280Y-1935210D01*
X10166910Y-1966960D01*
X10182660Y-2004000D01*
X10190530Y-2046330D01*
Y-2088670D01*
X10182660Y-2131000D01*
X10166910Y-2168040D01*
X10143280Y-2199800D01*
X10115720Y-2220960D01*
X10084230Y-2226250D01*
G01X10115720Y-2141580D02*
X10162970Y-2226250D01*
G01X10399190Y-1908750D02*
Y-2226250D01*
G01X10308640Y-1908750D02*
X10489740D01*
G01X10714150Y-2226250D02*
Y-2083380D01*
X10635410Y-1908750D01*
G01X10792890D02*
X10714150Y-2083380D01*
G01X-900000Y-3020000D02*
Y-465000D01*
X11383440D01*
Y-3020000D01*
X-900000D01*
G01X5818120Y659000D02*
Y5636600D01*
X7342120D01*
Y659000D01*
X5818120D01*
M02*
