G04 ================== begin FILE IDENTIFICATION RECORD ==================*
G04 Layout Name:  C:/Users/dorin/Desktop/An III/Proiect 1/allegro/P1-AMPLIFICATOR.brd*
G04 Film Name:    TOP*
G04 File Format:  Gerber RS274X*
G04 File Origin:  Cadence Allegro 16.6-2015-S059*
G04 Origin Date:  Tue Dec 14 21:26:38 2021*
G04 *
G04 Layer:  ETCH/TOP*
G04 Layer:  PIN/TOP*
G04 Layer:  VIA CLASS/TOP*
G04 *
G04 Offset:    (0.0000 0.0000)*
G04 Mirror:    No*
G04 Mode:      Positive*
G04 Rotation:  0*
G04 FullContactRelief:  No*
G04 UndefLineWidth:     0.1000*
G04 ================== end FILE IDENTIFICATION RECORD ====================*
%FSLAX25Y25*MOMM*%
%IR0*IPPOS*OFA0.00000B0.00000*MIA0B0*SFA1.00000B1.00000*%
%ADD13C,.7*%
%ADD16R,.9144X1.27*%
%ADD14R,1.27X.9144*%
%ADD15C,1.*%
%ADD12R,1.27X1.27*%
%ADD10R,3.048X1.9304*%
%ADD11R,1.9304X3.048*%
%ADD17C,.4*%
%ADD18C,.5*%
%ADD19C,.75*%
G75*
%LPD*%
G75*
G54D10*
X361000Y2434560D03*
Y3034000D03*
X3647000Y1801000D03*
Y2400440D03*
X3642000Y3051560D03*
Y3651000D03*
G54D11*
X962000Y374000D03*
X362560D03*
G54D12*
X364000Y1049000D03*
X577360D03*
X962000Y958000D03*
X964000Y1723000D03*
X962000Y1171360D03*
X578000Y2040000D03*
X791360D03*
X979000Y3651000D03*
X1521000Y919000D03*
X1734000Y379000D03*
X1520640D03*
X1177360Y1723000D03*
X1521000Y1132360D03*
X1516000Y1530000D03*
Y1743360D03*
X1192360Y3651000D03*
X1674000D03*
X2138000Y3107000D03*
Y3320360D03*
X1887360Y3651000D03*
X2625000Y544000D03*
X2838360D03*
X2625000Y1039000D03*
X2838360D03*
X3225000Y1290000D03*
Y1503360D03*
X2949000Y3107000D03*
X2735640D03*
X2665000Y3651000D03*
X2878360D03*
X3444000Y982000D03*
X3657360D03*
G54D13*
X366360Y1743360D03*
X979000Y2362000D03*
X1720000Y918000D03*
X1356360Y1743360D03*
X1651000Y2362000D03*
X1701000Y2084000D03*
X1333000Y1932000D03*
X1733860Y2615860D03*
X2265000Y1700000D03*
X2288000Y1956260D03*
X1893260D03*
X2170000Y2845000D03*
X2838360Y740000D03*
X2625000Y1316000D03*
X3157000Y2942000D03*
X3444000Y1396000D03*
Y2668000D03*
G54D14*
X979000Y2511720D03*
Y3257000D03*
Y3048720D03*
Y2720000D03*
X1194260Y2201140D03*
X1400000Y2097000D03*
Y2305280D03*
X1184740Y3152860D03*
X1468260Y3257140D03*
X1674000Y3153000D03*
X1184740Y2615860D03*
X1674000Y3361280D03*
X2235740Y1031860D03*
X2030000Y927720D03*
X1893260Y1647140D03*
X2099000Y1543000D03*
Y1751280D03*
X2467260Y1702140D03*
X2030000Y1136000D03*
X2170000Y2512720D03*
X1893260Y2216140D03*
X2099000Y2112000D03*
Y2320280D03*
X2375740Y2616860D03*
X2170000Y2721000D03*
X2673000Y1598000D03*
Y1806280D03*
X3270740Y2191860D03*
X3065000Y2296000D03*
Y2087720D03*
G54D15*
X500000Y3500000D03*
X3500000Y500000D03*
G54D16*
X3052860Y2553260D03*
X3157000Y2759000D03*
X2948720D03*
G54D17*
G01X578000Y2040000D02*
Y1145840D01*
X577360Y1145200D01*
Y1049000D01*
G01X964000Y1723000D02*
Y1269560D01*
X962000Y1267560D01*
Y1171360D01*
G01X979000Y2511720D02*
Y2362000D01*
G01D02*
Y2271140D01*
X1049000Y2201140D01*
X1194260D01*
G01X1468260Y3257140D02*
Y3433000D01*
X1428260Y3473000D01*
X1051000D01*
X979000Y3401000D01*
Y3257000D01*
G01Y3048720D02*
X791280D01*
X712000Y3128000D01*
Y3554000D01*
X809000Y3651000D01*
X979000D01*
G01X2030000Y927720D02*
X1849940D01*
X1755220Y833000D01*
X1754220D01*
X1734000Y812780D01*
Y379000D01*
G01X1521000Y1132360D02*
X1930160D01*
X1933800Y1136000D01*
X2030000D01*
G01X1516000Y1530000D02*
Y1233560D01*
X1521000Y1228560D01*
Y1132360D01*
G01X1516000Y1530000D02*
X1520000Y1526000D01*
X1654000D01*
X1696000Y1568000D01*
Y1964000D01*
X1563000Y2097000D01*
X1400000D01*
G01X1177360Y1723000D02*
Y1875360D01*
X1175360Y1877360D01*
X1230000Y1932000D01*
X1333000D01*
G01X2170000Y2512720D02*
X1703720D01*
X1651000Y2460000D01*
Y2362000D01*
G01X1701000Y2084000D02*
Y2191780D01*
X1587500Y2305280D01*
X1400000D01*
G01X2375740Y2616860D02*
Y2820260D01*
X2239000Y2957000D01*
X1997000D01*
X1801000Y3153000D01*
X1674000D01*
G01D02*
Y3030000D01*
X1634000Y2990000D01*
X1508260D01*
X1468260Y3030000D01*
Y3257140D01*
G01X1184740Y3152860D02*
Y2615860D01*
G01D02*
X1733860D01*
G01X1674000Y3651000D02*
Y3361280D01*
G01X2099000Y1751280D02*
Y2112000D01*
G01X2673000Y1598000D02*
Y1494400D01*
X2643600Y1465000D01*
X2532000D01*
X2454000Y1543000D01*
X2099000D01*
G01X1893260Y1647140D02*
Y1367000D01*
X1933260Y1327000D01*
X2044000D01*
X2099000Y1382000D01*
G01D02*
Y1543000D01*
G01X2235740Y1031860D02*
Y1245260D01*
X2099000Y1382000D01*
G01Y2112000D02*
Y2120000D01*
G01X1893260Y2216140D02*
Y1956260D01*
G01X2288000D02*
Y2072000D01*
X2248000Y2112000D01*
X2099000D01*
G01Y2320280D02*
X2835720D01*
X2860000Y2296000D01*
X3065000D01*
G01X2138000Y3107000D02*
X2735640D01*
G01X2170000Y2721000D02*
Y2845000D01*
G01X2138000Y3320360D02*
Y3533000D01*
X2256000Y3651000D01*
X2665000D01*
G01X2625000Y1039000D02*
Y544000D01*
G01Y1316000D02*
Y1039000D01*
G01X3225000Y1290000D02*
Y1108000D01*
X3156000Y1039000D01*
X2838360D01*
G01X3052860Y2553260D02*
Y2386560D01*
X3065000Y2374420D01*
Y2296000D01*
G01X2949000Y3107000D02*
Y2855480D01*
X2948720Y2855200D01*
Y2759000D01*
G01X3157000D02*
Y2942000D01*
G54D18*
G01X962000Y374000D02*
X1414440D01*
X1419440Y379000D01*
X1520640D01*
G01X962000Y374000D02*
Y958000D01*
G01X658000Y2853000D02*
Y2372000D01*
X791360Y2238640D01*
Y2040000D01*
G01X361000Y3034000D02*
X596000D01*
X658000Y2972000D01*
Y2853000D01*
G01X979000Y2720000D02*
X982000Y2723000D01*
G01X658000Y2853000D02*
X791000Y2720000D01*
X979000D01*
G01X1521000Y919000D02*
Y480560D01*
X1520640Y480200D01*
Y379000D01*
G01X1521000Y919000D02*
X1646300D01*
X1647300Y918000D01*
X1720000D01*
G01X1890000Y3796500D02*
Y3800000D01*
X1844000Y3846000D01*
X1247000D01*
X1192360Y3791360D01*
Y3651000D01*
G01X2265000Y1700000D02*
X2363920D01*
X2366060Y1702140D01*
X2467260D01*
G01X1890000Y3796500D02*
X1940000Y3846500D01*
X2828360D01*
X2878360Y3796500D01*
Y3651000D01*
G01X1890000Y3796500D02*
Y3653640D01*
X1887360Y3651000D01*
G01X3225000Y1503360D02*
Y1714000D01*
G01D02*
X3312000Y1801000D01*
X3647000D01*
G01X3065000Y2087720D02*
Y1874000D01*
X3225000Y1714000D01*
G01X3065000Y2087720D02*
X2763720D01*
X2673000Y1997000D01*
Y1806280D01*
G01X3270740Y2191860D02*
Y3555740D01*
X3366000Y3651000D01*
G01X2878360D02*
X3366000D01*
G01X3657360Y982000D02*
Y1110640D01*
X3647000Y1121000D01*
Y1801000D01*
G01X3366000Y3651000D02*
X3642000D01*
G54D19*
G01X364000Y1049000D02*
Y578040D01*
X362560Y576600D01*
Y374000D01*
G01X364000Y1049000D02*
Y1655800D01*
X366360Y1658160D01*
Y1743360D01*
G01D02*
Y2282480D01*
X361000Y2287840D01*
Y2434560D01*
G01X1516000Y1743360D02*
X1356360D01*
G01X3444000Y982000D02*
Y732000D01*
X3256000Y544000D01*
X2838360D01*
G01D02*
Y740000D01*
G01X3444000Y982000D02*
Y1396000D01*
G01X3642000Y2866000D02*
Y2552160D01*
X3647000Y2547160D01*
Y2400440D01*
G01X3642000Y3051560D02*
Y2866000D01*
G01X3444000Y2668000D02*
X3642000Y2866000D01*
M02*
